<?xml version="1.0" encoding="UTF-8" standalone="no"?>
<!-- Created with Inkscape (http://www.inkscape.org/) -->

<svg
   xmlns:dc="http://purl.org/dc/elements/1.1/"
   xmlns:cc="http://creativecommons.org/ns#"
   xmlns:rdf="http://www.w3.org/1999/02/22-rdf-syntax-ns#"
   xmlns:svg="http://www.w3.org/2000/svg"
   xmlns="http://www.w3.org/2000/svg"
   xmlns:sodipodi="http://sodipodi.sourceforge.net/DTD/sodipodi-0.dtd"
   xmlns:inkscape="http://www.inkscape.org/namespaces/inkscape"
   id="svg2"
   version="1.1"
   inkscape:version="0.48.4 r9939"
   width="745.01392"
   height="249.54291"
   xml:space="preserve"
   sodipodi:docname="EC_banner.svg"><metadata
     id="metadata8"><rdf:RDF><cc:Work
         rdf:about=""><dc:format>image/svg+xml</dc:format><dc:type
           rdf:resource="http://purl.org/dc/dcmitype/StillImage" /><dc:title /></cc:Work></rdf:RDF></metadata><defs
     id="defs6"><clipPath
       clipPathUnits="userSpaceOnUse"
       id="clipPath20"><path
         d="m 331.04,294.88 231.52,0 0,9.84 -231.52,0 0,-9.84 z"
         clip-rule="evenodd"
         id="path22"
         inkscape:connector-curvature="0" /></clipPath><clipPath
       clipPathUnits="userSpaceOnUse"
       id="clipPath28"><path
         d="m 331.03,294.89 231.53,0 0,9.84 -231.53,0 0,-9.84 z"
         clip-rule="evenodd"
         id="path30"
         inkscape:connector-curvature="0" /></clipPath><clipPath
       clipPathUnits="userSpaceOnUse"
       id="clipPath40"><path
         d="m 331.03,294.89 231.53,0 0,9.84 -231.53,0 0,-9.84 z"
         clip-rule="evenodd"
         id="path42"
         inkscape:connector-curvature="0" /></clipPath><clipPath
       clipPathUnits="userSpaceOnUse"
       id="clipPath52"><path
         d="m 331.03,294.89 231.53,0 0,9.84 -231.53,0 0,-9.84 z"
         clip-rule="evenodd"
         id="path54"
         inkscape:connector-curvature="0" /></clipPath><clipPath
       clipPathUnits="userSpaceOnUse"
       id="clipPath60"><path
         d="m 331.04,320.2 231.52,0 0,70.2 -231.52,0 0,-70.2 z"
         clip-rule="evenodd"
         id="path62"
         inkscape:connector-curvature="0" /></clipPath><clipPath
       clipPathUnits="userSpaceOnUse"
       id="clipPath68"><path
         d="m 331.03,320.21 231.53,0 0,70.2 -231.53,0 0,-70.2 z"
         clip-rule="evenodd"
         id="path70"
         inkscape:connector-curvature="0" /></clipPath><clipPath
       clipPathUnits="userSpaceOnUse"
       id="clipPath76"><path
         d="m 331.03,320.21 231.53,0 0,70.2 -231.53,0 0,-70.2 z"
         clip-rule="evenodd"
         id="path78"
         inkscape:connector-curvature="0" /></clipPath><clipPath
       clipPathUnits="userSpaceOnUse"
       id="clipPath84"><path
         d="m 331.03,320.21 231.53,0 0,70.2 -231.53,0 0,-70.2 z"
         clip-rule="evenodd"
         id="path86"
         inkscape:connector-curvature="0" /></clipPath><clipPath
       clipPathUnits="userSpaceOnUse"
       id="clipPath92"><path
         d="m 331.03,320.21 231.53,0 0,70.2 -231.53,0 0,-70.2 z"
         clip-rule="evenodd"
         id="path94"
         inkscape:connector-curvature="0" /></clipPath><clipPath
       clipPathUnits="userSpaceOnUse"
       id="clipPath100"><path
         d="m 331.03,320.21 231.53,0 0,70.2 -231.53,0 0,-70.2 z"
         clip-rule="evenodd"
         id="path102"
         inkscape:connector-curvature="0" /></clipPath><clipPath
       clipPathUnits="userSpaceOnUse"
       id="clipPath108"><path
         d="m 331.03,320.21 231.53,0 0,70.2 -231.53,0 0,-70.2 z"
         clip-rule="evenodd"
         id="path110"
         inkscape:connector-curvature="0" /></clipPath><clipPath
       clipPathUnits="userSpaceOnUse"
       id="clipPath120"><path
         d="m 331.03,320.21 231.53,0 0,70.2 -231.53,0 0,-70.2 z"
         clip-rule="evenodd"
         id="path122"
         inkscape:connector-curvature="0" /></clipPath><clipPath
       clipPathUnits="userSpaceOnUse"
       id="clipPath128"><path
         d="m 331.04,414.52 231.65,0 0,69.99 -231.65,0 0,-69.99 z"
         clip-rule="evenodd"
         id="path130"
         inkscape:connector-curvature="0" /></clipPath><clipPath
       clipPathUnits="userSpaceOnUse"
       id="clipPath136"><path
         d="m 331.03,414.53 231.65,0 0,69.984 -231.65,0 0,-69.984 z"
         clip-rule="evenodd"
         id="path138"
         inkscape:connector-curvature="0" /></clipPath><clipPath
       clipPathUnits="userSpaceOnUse"
       id="clipPath148"><path
         d="m 331.03,414.53 231.65,0 0,69.984 -231.65,0 0,-69.984 z"
         clip-rule="evenodd"
         id="path150"
         inkscape:connector-curvature="0" /></clipPath><clipPath
       clipPathUnits="userSpaceOnUse"
       id="clipPath156"><path
         d="m 331.03,414.53 231.65,0 0,69.984 -231.65,0 0,-69.984 z"
         clip-rule="evenodd"
         id="path158"
         inkscape:connector-curvature="0" /></clipPath><clipPath
       clipPathUnits="userSpaceOnUse"
       id="clipPath168"><path
         d="m 331.03,414.53 231.65,0 0,69.984 -231.65,0 0,-69.984 z"
         clip-rule="evenodd"
         id="path170"
         inkscape:connector-curvature="0" /></clipPath><clipPath
       clipPathUnits="userSpaceOnUse"
       id="clipPath176"><path
         d="m 331.03,414.53 231.65,0 0,69.984 -231.65,0 0,-69.984 z"
         clip-rule="evenodd"
         id="path178"
         inkscape:connector-curvature="0" /></clipPath><clipPath
       clipPathUnits="userSpaceOnUse"
       id="clipPath188"><path
         d="m 331.03,414.53 231.65,0 0,69.984 -231.65,0 0,-69.984 z"
         clip-rule="evenodd"
         id="path190"
         inkscape:connector-curvature="0" /></clipPath><clipPath
       clipPathUnits="userSpaceOnUse"
       id="clipPath196"><path
         d="m 33.001,495.31 529.32,0 0,113.3 -529.32,0 0,-113.3 z"
         clip-rule="evenodd"
         id="path198"
         inkscape:connector-curvature="0" /></clipPath><clipPath
       clipPathUnits="userSpaceOnUse"
       id="clipPath204"><path
         d="m 33,495.31 529.32,0 0,113.3 -529.32,0 0,-113.3 z"
         clip-rule="evenodd"
         id="path206"
         inkscape:connector-curvature="0" /></clipPath><clipPath
       clipPathUnits="userSpaceOnUse"
       id="clipPath216"><path
         d="m 33,495.31 529.32,0 0,113.3 -529.32,0 0,-113.3 z"
         clip-rule="evenodd"
         id="path218"
         inkscape:connector-curvature="0" /></clipPath><clipPath
       clipPathUnits="userSpaceOnUse"
       id="clipPath224"><path
         d="m 33,495.31 529.32,0 0,113.3 -529.32,0 0,-113.3 z"
         clip-rule="evenodd"
         id="path226"
         inkscape:connector-curvature="0" /></clipPath><clipPath
       clipPathUnits="userSpaceOnUse"
       id="clipPath236"><path
         d="m 33,495.31 529.32,0 0,113.3 -529.32,0 0,-113.3 z"
         clip-rule="evenodd"
         id="path238"
         inkscape:connector-curvature="0" /></clipPath><clipPath
       clipPathUnits="userSpaceOnUse"
       id="clipPath244"><path
         d="m 33,495.31 529.32,0 0,113.3 -529.32,0 0,-113.3 z"
         clip-rule="evenodd"
         id="path246"
         inkscape:connector-curvature="0" /></clipPath><clipPath
       clipPathUnits="userSpaceOnUse"
       id="clipPath256"><path
         d="m 33,495.31 529.32,0 0,113.3 -529.32,0 0,-113.3 z"
         clip-rule="evenodd"
         id="path258"
         inkscape:connector-curvature="0" /></clipPath><clipPath
       clipPathUnits="userSpaceOnUse"
       id="clipPath268"><path
         d="m 463.05,56.159 99.15,0 0,6.72 -99.15,0 0,-6.72 z"
         clip-rule="evenodd"
         id="path270"
         inkscape:connector-curvature="0" /></clipPath><clipPath
       clipPathUnits="userSpaceOnUse"
       id="clipPath278"><path
         d="m 463.06,56.16 99.144,0 0,6.72 -99.144,0 0,-6.72 z"
         clip-rule="evenodd"
         id="path280"
         inkscape:connector-curvature="0" /></clipPath><clipPath
       clipPathUnits="userSpaceOnUse"
       id="clipPath290"><path
         d="m 463.06,56.16 99.144,0 0,6.72 -99.144,0 0,-6.72 z"
         clip-rule="evenodd"
         id="path292"
         inkscape:connector-curvature="0" /></clipPath><clipPath
       clipPathUnits="userSpaceOnUse"
       id="clipPath302"><path
         d="m 463.06,56.16 99.144,0 0,6.72 -99.144,0 0,-6.72 z"
         clip-rule="evenodd"
         id="path304"
         inkscape:connector-curvature="0" /></clipPath><clipPath
       clipPathUnits="userSpaceOnUse"
       id="clipPath310"><path
         d="m 463.06,56.16 99.144,0 0,6.72 -99.144,0 0,-6.72 z"
         clip-rule="evenodd"
         id="path312"
         inkscape:connector-curvature="0" /></clipPath><clipPath
       clipPathUnits="userSpaceOnUse"
       id="clipPath322"><path
         d="m 463.06,56.16 99.144,0 0,6.72 -99.144,0 0,-6.72 z"
         clip-rule="evenodd"
         id="path324"
         inkscape:connector-curvature="0" /></clipPath><clipPath
       clipPathUnits="userSpaceOnUse"
       id="clipPath330"><path
         d="m 35.881,185.19 305.96,0 0,69.96 -305.96,0 0,-69.96 z"
         clip-rule="evenodd"
         id="path332"
         inkscape:connector-curvature="0" /></clipPath><clipPath
       clipPathUnits="userSpaceOnUse"
       id="clipPath338"><path
         d="m 35.88,185.18 305.95,0 0,69.96 -305.95,0 0,-69.96 z"
         clip-rule="evenodd"
         id="path340"
         inkscape:connector-curvature="0" /></clipPath><clipPath
       clipPathUnits="userSpaceOnUse"
       id="clipPath350"><path
         d="m 35.88,185.18 305.95,0 0,69.96 -305.95,0 0,-69.96 z"
         clip-rule="evenodd"
         id="path352"
         inkscape:connector-curvature="0" /></clipPath><clipPath
       clipPathUnits="userSpaceOnUse"
       id="clipPath362"><path
         d="m 35.88,185.18 305.95,0 0,69.96 -305.95,0 0,-69.96 z"
         clip-rule="evenodd"
         id="path364"
         inkscape:connector-curvature="0" /></clipPath><clipPath
       clipPathUnits="userSpaceOnUse"
       id="clipPath370"><path
         d="m 35.88,185.18 305.95,0 0,69.96 -305.95,0 0,-69.96 z"
         clip-rule="evenodd"
         id="path372"
         inkscape:connector-curvature="0" /></clipPath><clipPath
       clipPathUnits="userSpaceOnUse"
       id="clipPath382"><path
         d="m 35.88,185.18 305.95,0 0,69.96 -305.95,0 0,-69.96 z"
         clip-rule="evenodd"
         id="path384"
         inkscape:connector-curvature="0" /></clipPath><clipPath
       clipPathUnits="userSpaceOnUse"
       id="clipPath4264"><rect
         style="color:#000000;fill:none;stroke:#000000;stroke-width:0.0014507;stroke-opacity:1;marker:none;visibility:visible;display:inline;overflow:visible;enable-background:accumulate"
         id="rect4266"
         width="1.0860097"
         height="0.5373323"
         x="-0.0066091036"
         y="-0.25159159"
         transform="scale(1,-1)" /></clipPath></defs><sodipodi:namedview
     pagecolor="#ffffff"
     bordercolor="#666666"
     borderopacity="1"
     objecttolerance="10"
     gridtolerance="10"
     guidetolerance="10"
     inkscape:pageopacity="0"
     inkscape:pageshadow="2"
     inkscape:window-width="1920"
     inkscape:window-height="1058"
     id="namedview4"
     showgrid="false"
     fit-margin-top="0"
     fit-margin-left="0"
     fit-margin-right="0"
     fit-margin-bottom="0"
     inkscape:zoom="1.793739"
     inkscape:cx="377.32769"
     inkscape:cy="96.379109"
     inkscape:window-x="1672"
     inkscape:window-y="-8"
     inkscape:window-maximized="1"
     inkscape:current-layer="g10" /><g
     id="g10"
     inkscape:groupmode="layer"
     inkscape:label="2014-jrc_tech_rep_cov_templ_online"
     transform="matrix(1.25,0,0,-1.25,0.70139816,1052.4679)"><path
       id="path14"
       style="fill:#22ade5;fill-opacity:1;fill-rule:nonzero;stroke:none"
       d="m -0.56111853,841.97433 595.90374853,0 0,-106.301 -595.90374853,0 0,106.301 z"
       inkscape:connector-curvature="0" /><path
       id="path16"
       style="fill:#ffffff;fill-opacity:1;fill-rule:nonzero;stroke:none"
       d="m 233.43256,782.67733 c 0,0 45.40306,5.805 46.68541,6.012 1.96308,0.316 3.70793,0.688 5.33765,1.133 3.66789,0.996 7.05047,2.512 10.04263,4.512 2.87004,1.902 5.53686,4.668 8.18367,7.703 1.68178,1.933 3.44965,4.449 5.09539,6.882 l 0,1.168 c -1.95507,-2.859 -3.87911,-5.324 -5.8612,-7.5 -2.62378,-2.886 -5.3767,-5.25 -8.18467,-7.023 -2.89706,-1.844 -6.15852,-3.223 -9.69025,-4.09 -1.58368,-0.394 -3.28048,-0.715 -5.18449,-0.976 -1.25934,-0.176 -2.55371,-0.309 -3.80903,-0.442 -0.50053,-0.051 -42.61511,-4.469 -42.61511,-4.469 l 0,-2.91 z"
       inkscape:connector-curvature="0" /><path
       id="path18"
       style="fill:#ffffff;fill-opacity:1;fill-rule:nonzero;stroke:none"
       d="m 294.317,790.20133 c -2.84301,-1.617 -6.12348,-2.797 -9.75632,-3.516 -1.54864,-0.308 -3.23743,-0.558 -5.16547,-0.769 -1.1342,-0.122 -2.27641,-0.215 -3.41361,-0.313 -0.61866,-0.055 -1.23631,-0.109 -1.84596,-0.164 -13.91773,-1.234 -27.75638,-2.547 -40.69908,-3.785 l 0,-2.91 c 13.04481,1.554 26.98156,3.199 40.88628,4.758 0.62166,0.07 1.24432,0.136 1.86197,0.203 1.1372,0.125 2.27941,0.25 3.42162,0.398 1.9781,0.262 3.71093,0.559 5.29461,0.914 3.77299,0.836 7.1796,2.152 10.12371,3.914 2.9291,1.735 5.50983,4.164 8.29378,7.137 1.73284,1.851 3.65687,4.465 5.45878,6.918 l 0,1.066 c -2.12325,-2.843 -4.13738,-5.238 -6.13149,-7.277 -2.71387,-2.781 -5.51684,-4.992 -8.32882,-6.574"
       inkscape:connector-curvature="0" /><path
       id="path20"
       style="fill:#ffffff;fill-opacity:1;fill-rule:nonzero;stroke:none"
       d="m 302.26241,790.91233 c -2.76793,-2.508 -5.66199,-4.485 -8.5981,-5.871 -2.86703,-1.368 -6.07743,-2.329 -9.81539,-2.934 -1.54463,-0.254 -3.22241,-0.461 -5.12642,-0.629 l -45.28994,-3.68 0,-2.902 40.26061,4.223 5.20952,0.539 c 1.96207,0.222 3.67188,0.476 5.23154,0.769 3.86709,0.723 7.1876,1.801 10.14774,3.297 3.0262,1.512 6.0454,4.028 8.85637,6.692 1.885,1.785 3.69992,4.093 5.63897,6.511 l 0,0.969 c -2.24037,-2.754 -4.37964,-5.051 -6.5149,-6.984"
       inkscape:connector-curvature="0" /><path
       id="path22-8"
       style="fill:#ffffff;fill-opacity:1;fill-rule:nonzero;stroke:none"
       d="m 291.30982,775.83033 c -2.63579,-1.461 -4.60587,-2.301 -8.37186,-2.688 -2.27641,-0.242 -4.61489,-0.359 -6.87828,-0.469 -1.09516,-0.054 -2.19032,-0.109 -3.28548,-0.175 -6.83924,-0.387 -13.56035,-0.817 -20.41561,-1.258 l -18.92603,-1.262 0,-2.902 19.11323,1.734 c 6.17854,0.547 13.35814,1.176 20.36155,1.746 l 5.0954,0.387 c 1.9861,0.152 3.61682,0.312 5.13043,0.508 3.87109,0.492 7.1836,1.265 10.1167,2.363 3.15534,1.168 6.13149,2.98 9.11465,5.109 2.68685,1.918 6.40879,5.711 6.41279,5.758 l 0,1.028 c -2.43157,-2.348 -3.83206,-3.665 -6.49488,-5.399 -3.18336,-2.07 -8.61111,-3.176 -10.97261,-4.48"
       inkscape:connector-curvature="0" /><path
       id="path24"
       style="fill:#ffffff;fill-opacity:1;fill-rule:nonzero;stroke:none"
       d="m 292.27584,770.30633 c -2.85902,-0.828 -6.07643,-1.387 -9.83441,-1.711 -1.52161,-0.129 -3.16334,-0.23 -5.02131,-0.304 l -5.06436,-0.223 c -12.58733,-0.574 -25.11559,-1.223 -38.9232,-1.945 l 0,-2.899 c 13.19296,1.012 26.11764,1.996 39.03732,2.903 l 5.04834,0.339 c 1.95107,0.129 3.56578,0.266 5.09139,0.434 3.85108,0.426 7.14757,1.082 10.06866,2.008 3.24543,1.015 6.40178,2.488 9.39294,4.375 2.20934,1.39 4.41467,3.047 6.7061,5.023 l 0,0.051 c -2.52167,-2.133 -4.93022,-2.605 -7.32776,-4.035 -2.93711,-1.758 -6.02237,-3.11 -9.17371,-4.016"
       inkscape:connector-curvature="0" /><path
       id="path26"
       style="fill:#ffffff;fill-opacity:1;fill-rule:nonzero;stroke:none"
       d="m 291.80635,765.49433 c -2.87805,-0.664 -5.99835,-1.094 -9.81539,-1.344 -1.47356,-0.098 -3.05724,-0.172 -4.98528,-0.231 l -5.01731,-0.175 c -12.64238,-0.473 -25.45595,-1.016 -38.55581,-1.578 l 0,-2.895 c 13.01377,0.875 25.78129,1.731 38.65391,2.523 l 5.0053,0.301 c 1.96708,0.11 3.56277,0.223 5.03233,0.356 3.89112,0.355 7.07449,0.871 10.0146,1.625 3.3045,0.84 6.51489,2.07 9.5411,3.664 2.34248,1.226 4.68095,2.699 7.09751,4.476 l 0,1.239 c -2.61176,-1.868 -5.12242,-3.387 -7.63708,-4.629 -2.97115,-1.473 -6.11147,-2.594 -9.33388,-3.332"
       inkscape:connector-curvature="0" /><path
       id="path28"
       style="fill:#ffffff;fill-opacity:1;fill-rule:nonzero;stroke:none"
       d="m 291.37589,760.77533 c -2.88505,-0.523 -5.99434,-0.856 -9.78736,-1.047 -1.42351,-0.074 -2.94812,-0.129 -4.94623,-0.172 l -43.20974,-1.156 0,-2.891 38.31756,1.973 4.96225,0.25 c 1.93605,0.094 3.52373,0.184 4.98928,0.297 3.84007,0.289 7.00441,0.707 9.94853,1.316 3.33954,0.684 6.58097,1.688 9.6392,2.973 2.4556,1.031 4.92321,2.289 7.48793,3.816 l 0,1.164 c -2.7409,-1.574 -5.34866,-2.839 -7.9374,-3.851 -3.01119,-1.188 -6.19456,-2.082 -9.46402,-2.672"
       inkscape:connector-curvature="0" /><path
       id="path30-3"
       style="fill:#ffffff;fill-opacity:1;fill-rule:nonzero;stroke:none"
       d="m 291.04054,756.03733 c -5.30262,-0.7 -10.7614,-0.778 -16.04098,-0.856 -1.20828,-0.015 -2.42057,-0.039 -3.62884,-0.062 l -37.93416,-0.676 0,-2.887 38.00123,1.617 c 1.20427,0.055 2.41255,0.102 3.62083,0.153 5.31362,0.207 10.81144,0.426 16.18513,1.269 3.4016,0.528 6.67507,1.309 9.7283,2.328 2.53068,0.836 5.15445,1.918 7.80526,3.204 l 0,1.109 c -2.78795,-1.285 -5.53286,-2.356 -8.16464,-3.152 -3.0222,-0.922 -6.24061,-1.61 -9.57213,-2.047"
       inkscape:connector-curvature="0" /><path
       id="path32"
       style="fill:#ffffff;fill-opacity:1;fill-rule:nonzero;stroke:none"
       d="m 290.73922,751.26733 c -4.96626,-0.406 -10.05364,-0.406 -14.96885,-0.406 -1.53362,0 -3.06224,0 -4.58685,-0.012 -12.57231,-0.051 -25.03851,-0.156 -37.75096,-0.265 l 0,-2.887 c 12.10581,0.406 24.94841,0.828 37.79,1.203 1.52461,0.051 3.05023,0.09 4.57484,0.129 4.94624,0.125 10.05765,0.254 15.07496,0.789 3.50671,0.371 6.69408,0.914 9.75232,1.664 2.66682,0.648 5.40372,1.512 8.15263,2.551 l 0,1.058 c -2.835,-1.007 -5.666,-1.828 -8.41891,-2.425 -3.0262,-0.661 -6.17454,-1.118 -9.61918,-1.399"
       inkscape:connector-curvature="0" /><path
       id="path34"
       style="fill:#ffffff;fill-opacity:1;fill-rule:nonzero;stroke:none"
       d="m 290.54301,746.56833 c -2.06819,-0.082 -4.30856,-0.121 -6.85025,-0.121 -0.95802,0 -1.92404,0.008 -2.87805,0.015 l -9.78035,0.118 c -6.67106,0.047 -13.3191,0.058 -19.5557,0.062 l -18.0461,-0.015 0,-2.887 18.09315,0.469 c 6.20957,0.148 12.87663,0.304 19.52867,0.425 l 9.76834,0.125 c 2.68184,0.043 6.21658,0.121 9.79937,0.352 3.51072,0.226 6.7061,0.574 9.76734,1.055 2.75692,0.437 5.5729,1.023 8.38788,1.73 l 0,1.027 c -2.89306,-0.66 -5.7671,-1.187 -8.55906,-1.554 -3.04322,-0.403 -6.21057,-0.664 -9.67524,-0.801"
       inkscape:connector-curvature="0" /><path
       id="path36"
       style="fill:#ffffff;fill-opacity:1;fill-rule:nonzero;stroke:none"
       d="m 280.70059,742.02533 -9.74431,0.105 c -12.43116,0.172 -24.85431,0.395 -37.51972,0.629 l 0,-2.89 c 12.0908,0.078 24.89736,0.172 37.52773,0.308 l 9.74831,0.149 c 3.28848,0.051 6.50289,0.109 9.75633,0.218 6.7031,0.215 12.70144,0.68 18.30838,1.415 l 0,1.003 c -5.62696,-0.601 -11.63732,-0.914 -18.34342,-0.957 -3.24143,-0.027 -6.48686,-0.007 -9.7333,0.02"
       inkscape:connector-curvature="0" /><path
       id="path38"
       style="fill:#ffffff;fill-opacity:1;fill-rule:nonzero;stroke:none"
       d="m 308.77731,736.91633 -75.34475,1.886 0,-2.886 75.34475,0 0,1 z"
       inkscape:connector-curvature="0" /><path
       id="path40"
       style="fill:#ffffff;fill-opacity:1;fill-rule:nonzero;stroke:none"
       d="m 301.99713,785.45533 c -2.86303,-2.274 -5.07537,-3.887 -8.57908,-5.262 -3.04622,-1.199 -6.3277,-1.691 -10.06966,-2.195 -2.40855,-0.336 -4.92721,-0.829 -7.33176,-0.985 -0.99004,-0.066 -1.97909,-0.133 -2.96413,-0.207 l -39.61994,-2.855 0,-2.899 39.78011,3.813 5.15345,0.476 c 1.91603,0.18 3.61383,0.391 5.1935,0.641 3.85508,0.613 7.17559,1.547 10.15475,2.855 3.08927,1.348 6.21357,3.551 9.11965,5.969 1.97809,1.641 3.8751,3.703 5.94329,5.957 l 0,1.043 c -2.49865,-2.558 -4.57484,-4.601 -6.78018,-6.351"
       inkscape:connector-curvature="0" /><path
       id="path42-6"
       style="fill:#ffffff;fill-opacity:1;fill-rule:nonzero;stroke:none"
       d="m 264.75071,737.22833 65.99986,0 0,-29.012 -65.99986,0 0,29.012 z"
       inkscape:connector-curvature="0" /><g
       transform="matrix(1.0010596,0,0,-1,-0.66322661,842.18933)"
       id="g44"><path
         id="path46"
         style="fill:#093b92;fill-opacity:1;fill-rule:nonzero;stroke:#ffffff;stroke-width:0.28284401;stroke-linecap:butt;stroke-linejoin:miter;stroke-miterlimit:4;stroke-opacity:1;stroke-dasharray:none"
         d="m 265.273,63.223 65.652,0 0,43.652 -65.652,0 0,-43.652 z"
         inkscape:connector-curvature="0" /></g><path
       id="path48"
       style="fill:#fff200;fill-opacity:1;fill-rule:nonzero;stroke:none"
       d="m 298.4694,773.36133 2.29943,0 -1.84895,-1.426 0.71475,-2.262 -1.84495,1.395 -1.84195,-1.395 0.72677,2.262 -1.86498,1.426 2.28743,0 0.69273,2.203 0.67972,-2.203 z"
       inkscape:connector-curvature="0" /><path
       id="path50"
       style="fill:#fff200;fill-opacity:1;fill-rule:nonzero;stroke:none"
       d="m 298.55149,744.25233 2.29943,0 -1.84896,-1.375 0.71876,-2.176 -1.84495,1.34 -1.84195,-1.34 0.72677,2.176 -1.86898,1.375 2.29143,0 0.69273,2.121 0.67572,-2.121 z"
       inkscape:connector-curvature="0" /><path
       id="path52"
       style="fill:#fff200;fill-opacity:1;fill-rule:nonzero;stroke:none"
       d="m 305.8372,746.17733 2.29943,0 -1.84996,-1.371 0.71977,-2.176 -1.84596,1.34 -1.84595,-1.34 0.72777,2.176 -1.86498,1.371 2.29143,0 0.69173,2.125 0.67672,-2.125 z"
       inkscape:connector-curvature="0" /><path
       id="path54-6"
       style="fill:#fff200;fill-opacity:1;fill-rule:nonzero;stroke:none"
       d="m 305.8372,771.41933 2.29943,0 -1.84996,-1.375 0.71977,-2.175 -1.84596,1.343 -1.84595,-1.343 0.72777,2.175 -1.86498,1.375 2.29143,0 0.69173,2.122 0.67672,-2.122 z"
       inkscape:connector-curvature="0" /><path
       id="path56"
       style="fill:#fff200;fill-opacity:1;fill-rule:nonzero;stroke:none"
       d="m 311.24492,766.07233 2.29543,0 -1.84996,-1.371 0.71576,-2.176 -1.84195,1.34 -1.84095,-1.34 0.72677,2.176 -1.86497,1.371 2.28742,0 0.69173,2.121 0.68072,-2.121 z"
       inkscape:connector-curvature="0" /><path
       id="path58"
       style="fill:#fff200;fill-opacity:1;fill-rule:nonzero;stroke:none"
       d="m 311.24492,751.45133 2.29543,0 -1.84996,-1.375 0.71576,-2.176 -1.84195,1.34 -1.84095,-1.34 0.72677,2.176 -1.86497,1.375 2.28742,0 0.69173,2.121 0.68072,-2.121 z"
       inkscape:connector-curvature="0" /><path
       id="path60"
       style="fill:#fff200;fill-opacity:1;fill-rule:nonzero;stroke:none"
       d="m 313.27107,758.87333 2.30243,0 -1.85296,-1.371 0.71976,-2.18 -1.84595,1.347 -1.84195,-1.347 0.72377,2.18 -1.86598,1.371 2.28742,0 0.69674,2.121 0.67672,-2.121 z"
       inkscape:connector-curvature="0" /><path
       id="path62-6"
       style="fill:#fff200;fill-opacity:1;fill-rule:nonzero;stroke:none"
       d="m 291.04354,771.40033 2.29543,0 -1.84896,-1.371 0.71976,-2.176 -1.84195,1.34 -1.84595,-1.34 0.72677,2.176 -1.86498,1.371 2.28743,0 0.69673,2.121 0.67572,-2.121 z"
       inkscape:connector-curvature="0" /><path
       id="path64"
       style="fill:#fff200;fill-opacity:1;fill-rule:nonzero;stroke:none"
       d="m 285.78798,766.05633 2.29943,0 -1.85296,-1.375 0.71576,-2.176 -1.83795,1.344 -1.84595,-1.344 0.72376,2.176 -1.86597,1.375 2.29142,0 0.69674,2.121 0.67572,-2.121 z"
       inkscape:connector-curvature="0" /><path
       id="path66"
       style="fill:#fff200;fill-opacity:1;fill-rule:nonzero;stroke:none"
       d="m 283.83291,758.85333 2.30343,0 -1.85296,-1.371 0.71876,-2.176 -1.84495,1.34 -1.84595,-1.34 0.72677,2.176 -1.86498,1.371 2.29143,0 0.69273,2.121 0.67572,-2.121 z"
       inkscape:connector-curvature="0" /><path
       id="path68"
       style="fill:#fff200;fill-opacity:1;fill-rule:nonzero;stroke:none"
       d="m 285.78798,751.43133 2.29943,0 -1.85296,-1.371 0.71576,-2.18 -1.83795,1.34 -1.84595,-1.34 0.72376,2.18 -1.86597,1.371 2.29142,0 0.69674,2.121 0.67572,-2.121 z"
       inkscape:connector-curvature="0" /><path
       id="path70-7"
       style="fill:#fff200;fill-opacity:1;fill-rule:nonzero;stroke:none"
       d="m 291.12262,746.15833 2.29543,0 -1.85396,-1.371 0.71576,-2.176 -1.83795,1.344 -1.84595,-1.344 0.72777,2.176 -1.86598,1.371 2.29143,0 0.69273,2.125 0.68072,-2.125 z"
       inkscape:connector-curvature="0" /><path
       id="path72"
       style="fill:#22ade5;fill-opacity:1;fill-rule:nonzero;stroke:none"
       d="m 264.75071,709.07633 66.01487,0 0,-3.723 -66.01487,0 0,3.723 z"
       inkscape:connector-curvature="0" /><path
       id="path74"
       style="fill:#ffffff;fill-opacity:1;fill-rule:nonzero;stroke:none"
       d="m 340.15452,810.23233 c 0,0 13.76457,-21.188 16.27923,-25.082 2.51767,-3.895 5.39571,-6.973 15.57849,-9.066 10.18278,-2.094 14.61747,-3.082 14.61747,-3.082 l 0,-0.754 c 0,0 -6.47185,1.336 -14.79666,3.136 -8.32581,1.805 -11.73141,2.41 -15.52843,7.524 -3.15534,4.261 -16.1501,22.359 -16.1501,22.359 l 0,4.965 z"
       inkscape:connector-curvature="0" /><path
       id="path76"
       style="fill:#ffffff;fill-opacity:1;fill-rule:nonzero;stroke:none"
       d="m 340.15452,804.20933 c 0,0 14.22206,-20.145 16.11105,-22.614 1.889,-2.468 4.43069,-6.449 15.67259,-8.797 2.90107,-0.605 14.72659,-2.906 14.72659,-2.906 l 0,-0.637 c 0,0 -8.98651,1.711 -14.72659,2.907 -5.74408,1.195 -11.78147,2.285 -15.63354,7.086 -3.49971,4.363 -16.17713,20.449 -16.17713,20.449 l 0.027,4.512 z"
       inkscape:connector-curvature="0" /><path
       id="path78-6"
       style="fill:#ffffff;fill-opacity:1;fill-rule:nonzero;stroke:none"
       d="m 340.15452,798.15833 c 0,0 13.40119,-17.117 16.11105,-20.543 2.70587,-3.422 6.43982,-6.25 15.67259,-8 5.31863,-1.012 14.68755,-2.711 14.68755,-2.711 l 0,-0.637 c 0,0 -8.20368,1.516 -14.68755,2.672 -6.48386,1.152 -11.83652,2.27 -15.67259,6.527 -3.36656,3.735 -16.13808,18.418 -16.13808,18.418 l 0.027,4.274 z"
       inkscape:connector-curvature="0" /><path
       id="path80"
       style="fill:#ffffff;fill-opacity:1;fill-rule:nonzero;stroke:none"
       d="m 340.12749,792.21233 c 0,0 13.56836,-15.531 16.17713,-18.3 4.0623,-4.313 6.03338,-5.797 15.63354,-7.602 3.84007,-0.723 14.68755,-2.586 14.68755,-2.586 l 0,-0.68 c 0,0 -8.98651,1.594 -14.68755,2.586 -5.70103,1 -10.53014,1.368 -15.67259,6.254 -3.92215,3.719 -16.11105,16.321 -16.11105,16.321 l -0.027,4.007 z"
       inkscape:connector-curvature="0" /><path
       id="path82"
       style="fill:#ffffff;fill-opacity:1;fill-rule:nonzero;stroke:none"
       d="m 340.15452,786.02933 c 0,0 12.52926,-12.723 16.1501,-16.375 3.84407,-3.875 8.76728,-5.309 15.5905,-6.488 6.51489,-1.125 14.73059,-2.43 14.73059,-2.43 l 0,-0.715 c 0,0 -7.71517,1.223 -14.73059,2.387 -6.87828,1.144 -11.69238,1.781 -15.62955,5.297 -3.52773,3.148 -16.11105,14.582 -16.11105,14.582 l 0,3.742 z"
       inkscape:connector-curvature="0" /><path
       id="path84"
       style="fill:#ffffff;fill-opacity:1;fill-rule:nonzero;stroke:none"
       d="m 340.15452,780.29433 c 0,0 11.91461,-10.718 16.1501,-14.382 3.89812,-3.371 7.05847,-4.418 15.63354,-5.891 8.57208,-1.473 14.68755,-2.391 14.68755,-2.391 l 0,-0.753 c 0,0 -7.75421,1.23 -14.73059,2.308 -6.97238,1.074 -11.41809,1.5 -15.5905,4.777 -4.8141,3.786 -16.1501,12.829 -16.1501,12.829 l 0,3.503 z"
       inkscape:connector-curvature="0" /><path
       id="path86-6"
       style="fill:#ffffff;fill-opacity:1;fill-rule:nonzero;stroke:none"
       d="m 340.12749,774.16633 c 0,0 13.59239,-10.442 16.13808,-12.274 2.5417,-1.832 5.90826,-3.969 15.67259,-5.336 9.68225,-1.355 14.6445,-2.031 14.6445,-2.031 l 0,-0.797 c 0,0 -8.77929,1.234 -14.6445,1.949 -5.86921,0.723 -10.36597,1.024 -15.63354,4.422 -5.12243,3.309 -16.1501,10.828 -16.1501,10.828 l -0.027,3.239 z"
       inkscape:connector-curvature="0" /><path
       id="path88"
       style="fill:#ffffff;fill-opacity:1;fill-rule:nonzero;stroke:none"
       d="m 340.12749,768.29833 c 0,0 13.63544,-8.796 16.22017,-10.191 2.58474,-1.391 5.61895,-3.66 15.5905,-4.895 9.96755,-1.234 14.6445,-1.793 14.6445,-1.793 l 0,-0.757 c 0,0 -8.24672,0.879 -14.68754,1.554 -6.44082,0.68 -10.82746,1.594 -15.62955,4.141 -4.80208,2.547 -16.11105,8.945 -16.11105,8.945 l -0.027,2.996 z"
       inkscape:connector-curvature="0" /><path
       id="path90"
       style="fill:#ffffff;fill-opacity:1;fill-rule:nonzero;stroke:none"
       d="m 340.15452,762.43533 c 0,0 12.06778,-6.359 16.1501,-8.348 4.55582,-2.214 8.49299,-3.277 15.63354,-4.101 7.00742,-0.809 14.68755,-1.59 14.68755,-1.59 l 0,-0.719 c 0,0 -7.09751,0.739 -14.68755,1.434 -7.52396,0.691 -10.20179,1.008 -15.63354,3.344 -4.85715,2.089 -16.17713,7.191 -16.17713,7.191 l 0.027,2.789 z"
       inkscape:connector-curvature="0" /><path
       id="path92"
       style="fill:#ffffff;fill-opacity:1;fill-rule:nonzero;stroke:none"
       d="m 340.15452,756.46633 c 0,0 9.49105,-3.941 16.19314,-6.519 6.59298,-2.531 11.62531,-2.746 15.62955,-3.184 1.76386,-0.191 14.60545,-1.472 14.60545,-1.472 l 0,-0.715 c 0,0 -7.67212,0.597 -14.6445,1.195 -6.97638,0.594 -9.98356,0.848 -15.63354,2.664 -5.71706,1.84 -16.17713,5.375 -16.17713,5.375 l 0.027,2.656 z"
       inkscape:connector-curvature="0" /><path
       id="path94-0"
       style="fill:#ffffff;fill-opacity:1;fill-rule:nonzero;stroke:none"
       d="m 340.15452,750.41233 c 0,0 9.62719,-2.891 16.19314,-4.563 6.56195,-1.672 12.59133,-2.347 15.62955,-2.547 3.03421,-0.203 14.60545,-1.117 14.60545,-1.117 l 0,-0.676 c 0,0 -6.56194,0.438 -14.6445,0.993 -6.53792,0.453 -11.78947,0.929 -15.63354,1.753 -4.25851,0.911 -16.17713,3.664 -16.17713,3.664 l 0.027,2.493 z"
       inkscape:connector-curvature="0" /><path
       id="path96"
       style="fill:#ffffff;fill-opacity:1;fill-rule:nonzero;stroke:none"
       d="m 340.12749,744.43933 c 0,0 7.90237,-1.316 16.22017,-2.652 6.2326,-1 14.68755,-1.633 15.5905,-1.672 0.90296,-0.039 14.68755,-0.953 14.68755,-0.953 l 0,-0.715 c 0,0 -8.82234,0.441 -14.68755,0.754 -6.11146,0.328 -12.18089,0.687 -15.63354,1.035 -7.72318,0.777 -16.17713,1.816 -16.17713,1.816 l 0,2.387 z"
       inkscape:connector-curvature="0" /><path
       id="path98"
       style="fill:#ffffff;fill-opacity:1;fill-rule:nonzero;stroke:none"
       d="m 340.15452,738.25933 c 0,0 12.41915,-0.453 16.19314,-0.531 3.773,-0.078 30.27805,-1.113 30.27805,-1.113 l 0,-0.719 -46.47119,0.027 0,2.336 z"
       inkscape:connector-curvature="0" /><path
       id="path100"
       style="fill:#5a5758;fill-opacity:1;fill-rule:nonzero;stroke:none"
       d="m 268.60979,731.61533 c 0,0.133 0.0631,0.203 0.20722,0.203 l 3.83206,0 c 0.12513,0 0.19621,-0.07 0.19621,-0.195 l 0,-0.637 c 0,-0.125 -0.0511,-0.184 -0.20722,-0.184 l -2.84301,0 0,-1.773 2.52167,0 c 0.13314,0 0.20722,-0.059 0.20722,-0.188 l 0,-0.636 c 0,-0.121 -0.0501,-0.184 -0.20722,-0.184 l -2.52167,0 0,-2.027 2.91709,0 c 0.12513,0 0.18719,-0.063 0.18719,-0.196 l 0,-0.629 c 0,-0.132 -0.0541,-0.187 -0.19921,-0.187 l -3.88311,0 c -0.14415,0 -0.20722,0.066 -0.20722,0.187 l 0,6.446 z"
       inkscape:connector-curvature="0" /><path
       id="path102-5"
       style="fill:#5a5758;fill-opacity:1;fill-rule:nonzero;stroke:none"
       d="m 277.72945,724.98633 -0.73979,0 c -0.15616,0 -0.19921,0.07 -0.19921,0.195 l 0,0.317 -0.019,0.011 c -0.40743,-0.277 -1.11518,-0.617 -1.74785,-0.617 -1.40849,0 -1.54463,0.824 -1.54463,1.906 l 0,3.024 c 0,0.125 0.0541,0.207 0.19921,0.207 l 0.76281,0 c 0.13214,0 0.18719,-0.074 0.18719,-0.207 l 0,-2.891 c 0,-0.621 0.12113,-1.008 0.75881,-1.008 0.44547,0 1.1342,0.329 1.40348,0.461 l 0,3.438 c 0,0.125 0.043,0.207 0.19921,0.207 l 0.73979,0 c 0.14415,0 0.1952,-0.074 0.1952,-0.207 l 0,-4.641 c 0,-0.137 -0.051,-0.195 -0.1952,-0.195"
       inkscape:connector-curvature="0" /><path
       id="path104"
       style="fill:#5a5758;fill-opacity:1;fill-rule:nonzero;stroke:none"
       d="m 279.9538,725.18133 c 0,-0.125 -0.05,-0.195 -0.19521,-0.195 l -0.75079,0 c -0.14515,0 -0.19921,0.058 -0.19921,0.195 l 0,4.641 c 0,0.133 0.0541,0.207 0.19921,0.207 l 0.73878,0 c 0.15717,0 0.20722,-0.082 0.20722,-0.207 l 0,-0.453 0.02,-0.02 c 0.31233,0.289 1.05212,0.637 1.54464,0.731 0.13314,0.031 0.22624,0 0.24626,-0.176 l 0.0741,-0.688 c 0.012,-0.144 0.02,-0.207 -0.19922,-0.246 -0.57861,-0.117 -1.32139,-0.32 -1.68578,-0.476 l 0,-3.313 z"
       inkscape:connector-curvature="0" /><path
       id="path106"
       style="fill:#5a5758;fill-opacity:1;fill-rule:nonzero;stroke:none"
       d="m 284.32643,724.90033 c -2.09222,0 -2.22936,1.516 -2.22936,2.691 0,0.965 0.21923,2.539 2.22936,2.539 2.02114,0 2.29843,-1.328 2.29843,-2.539 0,-1.175 -0.14015,-2.691 -2.29843,-2.691 m 0.011,4.246 c -0.88694,0 -1.08315,-0.559 -1.08315,-1.629 0,-1.09 0.19621,-1.629 1.07214,-1.629 0.946,0 1.1372,0.528 1.1372,1.629 0,1.09 -0.17919,1.629 -1.12619,1.629"
       inkscape:connector-curvature="0" /><path
       id="path108"
       style="fill:#5a5758;fill-opacity:1;fill-rule:nonzero;stroke:none"
       d="m 289.65607,724.89233 c -0.34436,0 -0.82487,0.059 -1.30238,0.231 l -0.012,-0.016 0,-1.813 c 0,-0.109 -0.027,-0.203 -0.19521,-0.203 l -0.73878,0 c -0.16417,0 -0.20021,0.075 -0.20021,0.203 l 0,6.528 c 0,0.133 0.0551,0.207 0.20021,0.207 l 0.73878,0 c 0.14415,0 0.1872,-0.082 0.1872,-0.207 l 0,-0.309 0.032,-0.019 c 0.3754,0.258 1.04011,0.617 1.64575,0.617 1.36144,0 1.71681,-1.02 1.71681,-2.574 0,-1.68 -0.42645,-2.645 -2.07219,-2.645 m 0.0821,4.188 c -0.42645,0 -1.07915,-0.297 -1.39648,-0.461 l 0,-2.575 c 0.4695,-0.132 0.84489,-0.175 1.20027,-0.175 0.75079,0 1.00907,0.383 1.00907,1.679 0,1.309 -0.25828,1.532 -0.81286,1.532"
       inkscape:connector-curvature="0" /><path
       id="path110-5"
       style="fill:#5a5758;fill-opacity:1;fill-rule:nonzero;stroke:none"
       d="m 293.51515,727.19733 c 0.031,-1.039 0.40644,-1.328 1.26334,-1.328 0.3754,0 0.95802,0.074 1.35243,0.113 0.1882,0.02 0.25027,0.02 0.2823,-0.176 l 0.0621,-0.336 c 0.031,-0.156 0.012,-0.238 -0.17919,-0.32 -0.40343,-0.156 -1.16223,-0.258 -1.67377,-0.258 -1.99111,0 -2.28042,1.254 -2.28042,2.594 0,0.996 0.1882,2.644 2.21735,2.644 1.86497,0 2.19733,-1.191 2.22936,-2.304 0.008,-0.371 -0.0941,-0.629 -0.51254,-0.629 l -2.76093,0 z m 0.012,0.773 2.06418,0 c 0,0.629 -0.16818,1.235 -1.03209,1.235 -0.76981,0 -0.98104,-0.465 -1.03209,-1.235"
       inkscape:connector-curvature="0" /><path
       id="path112"
       style="fill:#5a5758;fill-opacity:1;fill-rule:nonzero;stroke:none"
       d="m 300.53458,725.57233 c -0.52055,-0.395 -1.22029,-0.672 -1.91602,-0.672 -1.10317,0 -1.42751,0.602 -1.42751,1.465 -0.008,1.203 0.64568,1.719 1.95907,1.719 l 1.32941,0 0,0.269 c 0,0.617 -0.22624,0.832 -1.07915,0.832 -0.34436,0 -1.00106,-0.055 -1.41549,-0.09 -0.21123,-0.035 -0.26228,-0.023 -0.29331,0.117 l -0.0941,0.383 c -0.019,0.137 0.012,0.219 0.23925,0.309 0.44547,0.152 1.27034,0.226 1.75886,0.226 1.80291,0 2.02214,-0.73 2.02214,-1.882 l 0,-1.989 c 0,-0.422 0.0511,-0.433 0.37139,-0.468 0.16017,-0.016 0.19922,-0.043 0.19922,-0.157 l 0,-0.433 c 0,-0.114 -0.0701,-0.184 -0.25027,-0.219 -0.16417,-0.027 -0.33235,-0.047 -0.48852,-0.047 -0.48851,0 -0.78983,0.141 -0.89595,0.625 l -0.019,0.012 z m -0.0631,1.707 -1.27035,0 c -0.52055,0 -0.8529,-0.184 -0.8529,-0.863 0,-0.454 0.15717,-0.598 0.64568,-0.598 0.44948,0 1.07915,0.258 1.47757,0.484 l 0,0.977 z"
       inkscape:connector-curvature="0" /><path
       id="path114"
       style="fill:#5a5758;fill-opacity:1;fill-rule:nonzero;stroke:none"
       d="m 306.72814,724.98633 -0.75079,0 c -0.13214,0 -0.19922,0.058 -0.19922,0.195 l 0.012,2.891 c 0,0.609 -0.14516,1.008 -0.7508,1.008 -0.41444,0 -1.14221,-0.328 -1.4235,-0.461 l 0,-3.438 c 0,-0.125 -0.0551,-0.195 -0.19921,-0.195 l -0.73879,0 c -0.14915,0 -0.20021,0.058 -0.20021,0.195 l 0,4.641 c 0,0.133 0.0511,0.207 0.20021,0.207 l 0.73879,0 c 0.14415,0 0.19921,-0.074 0.19921,-0.207 l 0,-0.309 c 0.012,0 0.02,-0.008 0.031,-0.008 0.3834,0.266 1.11118,0.618 1.74785,0.618 1.40449,0 1.52962,-0.918 1.52962,-1.957 l 0,-2.985 c 0,-0.125 -0.039,-0.195 -0.19621,-0.195"
       inkscape:connector-curvature="0" /><path
       id="path116"
       style="fill:#5a5758;fill-opacity:1;fill-rule:nonzero;stroke:none"
       d="m 271.32767,721.03333 c 0.50854,0 1.35343,-0.074 1.90402,-0.301 0.16817,-0.074 0.22724,-0.156 0.1962,-0.316 l -0.0941,-0.43 c -0.027,-0.117 -0.0821,-0.172 -0.26928,-0.149 -0.50854,0.059 -1.1342,0.133 -1.67377,0.133 -1.4155,0 -1.62673,-1.133 -1.62673,-2.468 0,-1.352 0.26128,-2.411 1.62673,-2.411 0.60163,0 1.11017,0.063 1.67377,0.133 0.19921,0.02 0.24225,-0.031 0.2813,-0.164 l 0.0821,-0.391 c 0.043,-0.167 -0.008,-0.257 -0.17618,-0.332 -0.50854,-0.214 -1.4155,-0.308 -1.92404,-0.308 -2.32246,0 -2.81098,1.699 -2.81098,3.449 0,1.762 0.43747,3.555 2.81098,3.555"
       inkscape:connector-curvature="0" /><path
       id="path118"
       style="fill:#5a5758;fill-opacity:1;fill-rule:nonzero;stroke:none"
       d="m 275.78138,714.04133 c -2.09121,0 -2.22835,1.511 -2.22835,2.687 0,0.969 0.21923,2.543 2.22835,2.543 2.02214,0 2.29944,-1.328 2.29944,-2.543 0,-1.176 -0.14415,-2.687 -2.29944,-2.687 m 0.008,4.242 c -0.88393,0 -1.07914,-0.555 -1.07914,-1.629 0,-1.09 0.19521,-1.625 1.07113,-1.625 0.94701,0 1.1342,0.523 1.1342,1.625 0,1.094 -0.17618,1.629 -1.12619,1.629"
       inkscape:connector-curvature="0" /><path
       id="path120"
       style="fill:#5a5758;fill-opacity:1;fill-rule:nonzero;stroke:none"
       d="m 285.95315,714.12333 -0.74779,0 c -0.14816,0 -0.20322,0.062 -0.20322,0.195 l 0,2.926 c 0,0.758 -0.18319,0.976 -0.70374,0.976 -0.38741,0 -1.01307,-0.297 -1.33341,-0.465 0,-0.101 0.012,-0.289 0.012,-0.523 l 0,-2.914 c 0,-0.121 -0.043,-0.195 -0.19921,-0.195 l -0.7588,0 c -0.13715,0 -0.18019,0.062 -0.18019,0.195 l 0,2.976 c 0,0.629 -0.16418,0.926 -0.68373,0.926 -0.36839,0 -0.947,-0.258 -1.34542,-0.465 l 0,-3.437 c 0,-0.121 -0.0511,-0.195 -0.19921,-0.195 l -0.74779,0 c -0.13615,0 -0.1872,0.062 -0.1872,0.195 l 0,4.644 c 0,0.133 0.051,0.204 0.1872,0.204 l 0.73978,0 c 0.15616,0 0.20722,-0.082 0.20722,-0.204 l 0,-0.3 0.012,-0.008 c 0.40643,0.277 0.97703,0.582 1.54764,0.605 0.60664,0 1.10717,-0.125 1.42751,-0.718 0.52055,0.378 1.16523,0.718 1.83394,0.718 1.37245,0 1.5096,-0.882 1.5096,-1.914 l 0,-3.027 c 0,-0.121 -0.043,-0.195 -0.1872,-0.195"
       inkscape:connector-curvature="0" /><path
       id="path122-2"
       style="fill:#5a5758;fill-opacity:1;fill-rule:nonzero;stroke:none"
       d="m 294.11379,714.12333 -0.7508,0 c -0.14515,0 -0.1952,0.062 -0.1952,0.195 l 0,2.926 c 0,0.758 -0.19221,0.976 -0.71176,0.976 -0.3834,0 -1.00906,-0.297 -1.33341,-0.465 0,-0.101 0.011,-0.289 0.011,-0.523 l 0,-2.914 c 0,-0.121 -0.039,-0.195 -0.1952,-0.195 l -0.76281,0 c -0.13314,0 -0.17619,0.062 -0.17619,0.195 l 0,2.976 c 0,0.629 -0.16717,0.926 -0.68772,0.926 -0.36339,0 -0.94601,-0.258 -1.34142,-0.465 l 0,-3.437 c 0,-0.121 -0.0511,-0.195 -0.19922,-0.195 l -0.74679,0 c -0.13714,0 -0.18819,0.062 -0.18819,0.195 l 0,4.644 c 0,0.133 0.051,0.204 0.18819,0.204 l 0.73879,0 c 0.15616,0 0.20722,-0.082 0.20722,-0.204 l 0,-0.3 0.008,-0.008 c 0.40643,0.277 0.98104,0.582 1.55265,0.605 0.60564,0 1.10216,-0.125 1.42751,-0.718 0.51955,0.378 1.16523,0.718 1.83394,0.718 1.37245,0 1.5086,-0.882 1.5086,-1.914 l 0,-3.027 c 0,-0.121 -0.043,-0.195 -0.1872,-0.195"
       inkscape:connector-curvature="0" /><path
       id="path124"
       style="fill:#5a5758;fill-opacity:1;fill-rule:nonzero;stroke:none"
       d="m 295.73651,719.90833 c -0.54358,0 -0.61365,0.301 -0.61365,0.594 0,0.332 0.11312,0.589 0.61365,0.589 0.50853,0 0.60964,-0.234 0.60964,-0.589 0,-0.317 -0.0901,-0.594 -0.60964,-0.594 m 0.55158,-5.59 c 0,-0.113 -0.043,-0.195 -0.1882,-0.195 l -0.73878,0 c -0.14515,0 -0.21122,0.062 -0.21122,0.195 l 0,4.652 c 0,0.145 0.0661,0.196 0.21122,0.196 l 0.73878,0 c 0.14515,0 0.1882,-0.082 0.1882,-0.196 l 0,-4.652 z"
       inkscape:connector-curvature="0" /><path
       id="path126"
       style="fill:#5a5758;fill-opacity:1;fill-rule:nonzero;stroke:none"
       d="m 298.86882,714.04133 c -0.52055,0 -1.21629,0.07 -1.61471,0.226 -0.20722,0.086 -0.25026,0.176 -0.21923,0.344 l 0.0741,0.336 c 0.031,0.164 0.10611,0.176 0.27028,0.156 0.45749,-0.074 1.1262,-0.125 1.47757,-0.125 0.66871,0 0.93899,0.176 0.93899,0.586 0,0.473 -0.17618,0.578 -0.83288,0.672 -1.02108,0.141 -1.91603,0.359 -1.91603,1.48 0,1.02 0.78984,1.555 1.95908,1.555 0.42545,0 1.1412,-0.062 1.57967,-0.227 0.17919,-0.074 0.25026,-0.152 0.21823,-0.308 l -0.0821,-0.371 c -0.031,-0.145 -0.0931,-0.164 -0.28129,-0.145 -0.44948,0.055 -1.02809,0.114 -1.4155,0.114 -0.66471,0 -0.82488,-0.188 -0.82488,-0.579 0,-0.402 0.25027,-0.453 0.88794,-0.554 0.98905,-0.141 1.88099,-0.34 1.88099,-1.563 0,-1.203 -1.02908,-1.597 -2.10022,-1.597"
       inkscape:connector-curvature="0" /><path
       id="path128"
       style="fill:#5a5758;fill-opacity:1;fill-rule:nonzero;stroke:none"
       d="m 303.22844,714.04133 c -0.51955,0 -1.21929,0.07 -1.61471,0.226 -0.20722,0.086 -0.24626,0.176 -0.21924,0.344 l 0.0751,0.336 c 0.031,0.164 0.10512,0.176 0.27329,0.156 0.45749,-0.074 1.12219,-0.125 1.47456,-0.125 0.66871,0 0.938,0.176 0.938,0.586 0,0.473 -0.17619,0.578 -0.83288,0.672 -1.02008,0.141 -1.91603,0.359 -1.91603,1.48 0,1.02 0.79384,1.555 1.95907,1.555 0.42645,0 1.14621,-0.062 1.58368,-0.227 0.17618,-0.074 0.25026,-0.152 0.21523,-0.308 l -0.0821,-0.371 c -0.031,-0.145 -0.0941,-0.164 -0.2813,-0.145 -0.44647,0.055 -1.03309,0.114 -1.4155,0.114 -0.6647,0 -0.82187,-0.188 -0.82187,-0.579 0,-0.402 0.24626,-0.453 0.88794,-0.554 0.98505,-0.141 1.88099,-0.34 1.88099,-1.563 0,-1.203 -1.03209,-1.597 -2.10422,-1.597"
       inkscape:connector-curvature="0" /><path
       id="path130-1"
       style="fill:#5a5758;fill-opacity:1;fill-rule:nonzero;stroke:none"
       d="m 306.61102,719.90833 c -0.53957,0 -0.60965,0.301 -0.60965,0.594 0,0.332 0.11312,0.589 0.60965,0.589 0.51254,0 0.61465,-0.234 0.61465,-0.589 0,-0.317 -0.0941,-0.594 -0.61465,-0.594 m 0.55158,-5.59 c 0,-0.113 -0.039,-0.195 -0.18419,-0.195 l -0.74279,0 c -0.14415,0 -0.20722,0.062 -0.20722,0.195 l 0,4.652 c 0,0.145 0.0631,0.196 0.20722,0.196 l 0.74279,0 c 0.14515,0 0.18419,-0.082 0.18419,-0.196 l 0,-4.652 z"
       inkscape:connector-curvature="0" /><path
       id="path132"
       style="fill:#5a5758;fill-opacity:1;fill-rule:nonzero;stroke:none"
       d="m 310.16177,714.04133 c -2.09221,0 -2.22835,1.511 -2.22835,2.687 0,0.969 0.22223,2.543 2.22835,2.543 2.02215,0 2.29944,-1.328 2.29944,-2.543 0,-1.176 -0.14115,-2.687 -2.29944,-2.687 m 0.012,4.242 c -0.88794,0 -1.08315,-0.555 -1.08315,-1.629 0,-1.09 0.19521,-1.625 1.07113,-1.625 0.94601,0 1.13821,0.523 1.13821,1.625 0,1.094 -0.18019,1.629 -1.12619,1.629"
       inkscape:connector-curvature="0" /><path
       id="path134"
       style="fill:#5a5758;fill-opacity:1;fill-rule:nonzero;stroke:none"
       d="m 317.2713,714.12333 -0.74679,0 c -0.13715,0 -0.20021,0.062 -0.20021,0.195 l 0.008,2.891 c 0,0.609 -0.14015,1.011 -0.74679,1.011 -0.41444,0 -1.14522,-0.328 -1.42351,-0.465 l 0,-3.437 c 0,-0.121 -0.0541,-0.195 -0.19921,-0.195 l -0.73878,0 c -0.14916,0 -0.20022,0.062 -0.20022,0.195 l 0,4.644 c 0,0.133 0.0511,0.204 0.20022,0.204 l 0.73878,0 c 0.14515,0 0.19921,-0.071 0.19921,-0.204 l 0,-0.308 c 0.008,0 0.016,-0.012 0.028,-0.012 0.3824,0.27 1.11418,0.617 1.74785,0.617 1.40749,0 1.53262,-0.914 1.53262,-1.957 l 0,-2.984 c 0,-0.121 -0.043,-0.195 -0.19921,-0.195"
       inkscape:connector-curvature="0" /><flowRoot
       xml:space="preserve"
       id="flowRoot3987"
       style="font-size:20px;font-style:normal;font-variant:normal;font-weight:normal;font-stretch:normal;line-height:125%;letter-spacing:0px;word-spacing:0px;fill:#58585a;fill-opacity:1;stroke:none;font-family:Arial;-inkscape-font-specification:Arial"
       transform="matrix(0.68681219,0,0,-0.76356204,51.863757,738.43347)"><flowRegion
         id="flowRegion3989"><rect
           id="rect3991"
           width="480.03867"
           height="51.847008"
           x="132.12625"
           y="77.834534"
           style="fill:#58585a;fill-opacity:1" /></flowRegion><flowPara
         id="flowPara3993"
         style="font-size:36px;font-style:normal;font-variant:normal;font-weight:normal;font-stretch:normal;letter-spacing:4.41884565px;fill:#58585a;fill-opacity:1;font-family:EC Square Sans Pro;-inkscape-font-specification:EC Square Sans Pro">JRC TECHNICAL REPORTS</flowPara></flowRoot><flowRoot
       xml:space="preserve"
       id="flowRoot4085"
       style="fill:black;stroke:none;stroke-opacity:1;stroke-width:1px;stroke-linejoin:miter;stroke-linecap:butt;fill-opacity:1;font-family:Arial;font-style:normal;font-weight:normal;font-size:20px;line-height:125%;letter-spacing:0px;word-spacing:0px;-inkscape-font-specification:Arial;font-stretch:normal;font-variant:normal"><flowRegion
         id="flowRegion4087"><rect
           id="rect4089"
           width="7.8049259"
           height="51.289513"
           x="239.16524"
           y="93.444389" /></flowRegion><flowPara
         id="flowPara4091"></flowPara></flowRoot></g></svg>